<mxfile host="Electron" modified="2024-05-28T18:09:00.546Z" agent="Mozilla/5.0 (Windows NT 10.0; Win64; x64) AppleWebKit/537.36 (KHTML, like Gecko) draw.io/24.4.0 Chrome/120.0.6099.109 Electron/28.1.0 Safari/537.36" etag="Qj1hAZukF6f2aXivfSht" version="24.4.0" type="device">
  <diagram name="PÃ¡gina-1" id="JRfsNzg8YaZ5BOQ35t-S">
    <mxGraphModel dx="804" dy="518" grid="1" gridSize="10" guides="1" tooltips="1" connect="1" arrows="1" fold="1" page="0" pageScale="1" pageWidth="827" pageHeight="1169" math="0" shadow="0">
      <root>
        <mxCell id="0" />
        <mxCell id="1" parent="0" />
        <mxCell id="r7nNvGlKOpMACiNWa7cd-1" value="READ" style="swimlane;startSize=20;horizontal=1;childLayout=treeLayout;horizontalTree=0;sortEdges=1;resizable=0;containerType=tree;fontSize=12;rounded=1;fillColor=#E6E6E6;" parent="1" vertex="1">
          <mxGeometry x="40" y="240" width="406" height="370" as="geometry" />
        </mxCell>
        <mxCell id="r7nNvGlKOpMACiNWa7cd-2" value="read-inst" style="fontStyle=2;rounded=1;fontFamily=Helvetica;" parent="r7nNvGlKOpMACiNWa7cd-1" vertex="1">
          <mxGeometry x="118" y="40" width="100" height="40" as="geometry" />
        </mxCell>
        <mxCell id="r7nNvGlKOpMACiNWa7cd-3" value="read-str" style="rounded=1;fontStyle=2;fontFamily=Helvetica;" parent="r7nNvGlKOpMACiNWa7cd-1" vertex="1">
          <mxGeometry x="118" y="130" width="100" height="40" as="geometry" />
        </mxCell>
        <mxCell id="r7nNvGlKOpMACiNWa7cd-4" value="" style="edgeStyle=elbowEdgeStyle;elbow=vertical;rounded=1;curved=0;sourcePerimeterSpacing=0;targetPerimeterSpacing=0;startSize=6;endSize=6;endArrow=classic;endFill=1;startArrow=none;startFill=0;" parent="r7nNvGlKOpMACiNWa7cd-1" source="r7nNvGlKOpMACiNWa7cd-2" target="r7nNvGlKOpMACiNWa7cd-3" edge="1">
          <mxGeometry relative="1" as="geometry" />
        </mxCell>
        <mxCell id="r7nNvGlKOpMACiNWa7cd-10" value="" style="edgeStyle=elbowEdgeStyle;elbow=vertical;rounded=1;curved=0;sourcePerimeterSpacing=0;targetPerimeterSpacing=0;startSize=6;endSize=6;startArrow=none;startFill=0;exitX=0.25;exitY=1;exitDx=0;exitDy=0;" parent="r7nNvGlKOpMACiNWa7cd-1" source="r7nNvGlKOpMACiNWa7cd-3" target="r7nNvGlKOpMACiNWa7cd-11" edge="1">
          <mxGeometry relative="1" as="geometry">
            <mxPoint x="50" y="310" as="sourcePoint" />
          </mxGeometry>
        </mxCell>
        <mxCell id="r7nNvGlKOpMACiNWa7cd-11" value="tokenize" style="rounded=1;fontStyle=2;fontFamily=Helvetica;" parent="r7nNvGlKOpMACiNWa7cd-1" vertex="1">
          <mxGeometry x="20" y="220" width="100" height="40" as="geometry" />
        </mxCell>
        <mxCell id="r7nNvGlKOpMACiNWa7cd-14" value="" style="edgeStyle=elbowEdgeStyle;elbow=vertical;rounded=1;curved=0;sourcePerimeterSpacing=0;targetPerimeterSpacing=0;startSize=6;endSize=6;endArrow=classic;endFill=1;startArrow=none;startFill=0;exitX=0.75;exitY=1;exitDx=0;exitDy=0;" parent="r7nNvGlKOpMACiNWa7cd-1" source="r7nNvGlKOpMACiNWa7cd-3" target="r7nNvGlKOpMACiNWa7cd-15" edge="1">
          <mxGeometry relative="1" as="geometry">
            <mxPoint x="50" y="310" as="sourcePoint" />
          </mxGeometry>
        </mxCell>
        <mxCell id="r7nNvGlKOpMACiNWa7cd-15" value="read-token" style="rounded=1;fontStyle=2;fontFamily=Helvetica;" parent="r7nNvGlKOpMACiNWa7cd-1" vertex="1">
          <mxGeometry x="216" y="220" width="100" height="40" as="geometry" />
        </mxCell>
        <mxCell id="r7nNvGlKOpMACiNWa7cd-16" value="" style="edgeStyle=elbowEdgeStyle;elbow=vertical;rounded=1;curved=0;sourcePerimeterSpacing=0;targetPerimeterSpacing=0;startSize=6;endSize=6;endArrow=classic;endFill=1;startArrow=none;startFill=0;exitX=0.25;exitY=1;exitDx=0;exitDy=0;" parent="r7nNvGlKOpMACiNWa7cd-1" source="r7nNvGlKOpMACiNWa7cd-15" target="r7nNvGlKOpMACiNWa7cd-17" edge="1">
          <mxGeometry relative="1" as="geometry">
            <mxPoint x="120" y="400" as="sourcePoint" />
          </mxGeometry>
        </mxCell>
        <mxCell id="r7nNvGlKOpMACiNWa7cd-17" value="read-atom" style="rounded=1;fontStyle=2;fontFamily=Helvetica;" parent="r7nNvGlKOpMACiNWa7cd-1" vertex="1">
          <mxGeometry x="146" y="310" width="100" height="40" as="geometry" />
        </mxCell>
        <mxCell id="r7nNvGlKOpMACiNWa7cd-18" value="" style="edgeStyle=elbowEdgeStyle;elbow=vertical;rounded=1;curved=0;sourcePerimeterSpacing=0;targetPerimeterSpacing=0;startSize=6;endSize=6;endArrow=classic;endFill=1;startArrow=none;startFill=0;exitX=0.75;exitY=1;exitDx=0;exitDy=0;entryX=0.25;entryY=0;entryDx=0;entryDy=0;" parent="r7nNvGlKOpMACiNWa7cd-1" source="r7nNvGlKOpMACiNWa7cd-15" target="r7nNvGlKOpMACiNWa7cd-21" edge="1">
          <mxGeometry relative="1" as="geometry">
            <mxPoint x="120" y="400" as="sourcePoint" />
          </mxGeometry>
        </mxCell>
        <mxCell id="r7nNvGlKOpMACiNWa7cd-21" value="read-list" style="rounded=1;fontStyle=2;fontFamily=Helvetica;" parent="r7nNvGlKOpMACiNWa7cd-1" vertex="1">
          <mxGeometry x="286" y="310" width="100" height="40" as="geometry" />
        </mxCell>
        <mxCell id="r7nNvGlKOpMACiNWa7cd-25" value="" style="edgeStyle=elbowEdgeStyle;elbow=vertical;rounded=1;curved=0;sourcePerimeterSpacing=0;targetPerimeterSpacing=0;startSize=6;endSize=6;endArrow=none;endFill=0;startArrow=classic;startFill=1;entryX=0.75;entryY=0;entryDx=0;entryDy=0;exitX=1;exitY=0.5;exitDx=0;exitDy=0;" parent="r7nNvGlKOpMACiNWa7cd-1" source="r7nNvGlKOpMACiNWa7cd-15" target="r7nNvGlKOpMACiNWa7cd-21" edge="1">
          <mxGeometry relative="1" as="geometry">
            <mxPoint x="276" y="270" as="sourcePoint" />
            <mxPoint x="346" y="320" as="targetPoint" />
            <Array as="points">
              <mxPoint x="340" y="240" />
            </Array>
          </mxGeometry>
        </mxCell>
        <mxCell id="r7nNvGlKOpMACiNWa7cd-49" value="EVAL" style="swimlane;rounded=1;fillColor=#E6E6E6;" parent="1" vertex="1">
          <mxGeometry x="526" y="240" width="140" height="190" as="geometry" />
        </mxCell>
        <mxCell id="r7nNvGlKOpMACiNWa7cd-52" value="" style="edgeStyle=orthogonalEdgeStyle;rounded=0;orthogonalLoop=1;jettySize=auto;entryX=0.25;entryY=0;entryDx=0;entryDy=0;exitX=0.25;exitY=1;exitDx=0;exitDy=0;" parent="r7nNvGlKOpMACiNWa7cd-49" source="r7nNvGlKOpMACiNWa7cd-50" target="r7nNvGlKOpMACiNWa7cd-51" edge="1">
          <mxGeometry relative="1" as="geometry" />
        </mxCell>
        <mxCell id="r7nNvGlKOpMACiNWa7cd-50" value="eval-token" style="rounded=1;fontStyle=2;fontFamily=Helvetica;" parent="r7nNvGlKOpMACiNWa7cd-49" vertex="1">
          <mxGeometry x="20" y="40" width="100" height="40" as="geometry" />
        </mxCell>
        <mxCell id="r7nNvGlKOpMACiNWa7cd-51" value="eval-ast" style="rounded=1;fontStyle=2;fontFamily=Helvetica;" parent="r7nNvGlKOpMACiNWa7cd-49" vertex="1">
          <mxGeometry x="20" y="130" width="100" height="40" as="geometry" />
        </mxCell>
        <mxCell id="r7nNvGlKOpMACiNWa7cd-54" value="" style="edgeStyle=orthogonalEdgeStyle;rounded=0;orthogonalLoop=1;jettySize=auto;entryX=0.75;entryY=1;entryDx=0;entryDy=0;exitX=0.75;exitY=0;exitDx=0;exitDy=0;" parent="r7nNvGlKOpMACiNWa7cd-49" source="r7nNvGlKOpMACiNWa7cd-51" target="r7nNvGlKOpMACiNWa7cd-50" edge="1">
          <mxGeometry relative="1" as="geometry">
            <mxPoint x="55" y="90" as="sourcePoint" />
            <mxPoint x="55" y="140" as="targetPoint" />
          </mxGeometry>
        </mxCell>
        <mxCell id="r7nNvGlKOpMACiNWa7cd-56" value="" style="endArrow=classic;rounded=0;exitX=1;exitY=0.5;exitDx=0;exitDy=0;entryX=0;entryY=0.5;entryDx=0;entryDy=0;dashed=1;strokeWidth=1;" parent="1" source="r7nNvGlKOpMACiNWa7cd-2" target="r7nNvGlKOpMACiNWa7cd-50" edge="1">
          <mxGeometry width="50" height="50" relative="1" as="geometry">
            <mxPoint x="380" y="340" as="sourcePoint" />
            <mxPoint x="430" y="290" as="targetPoint" />
          </mxGeometry>
        </mxCell>
        <mxCell id="lc0LaRIL4ASI05uKJP0S-4" value="AST" style="edgeLabel;align=center;verticalAlign=middle;resizable=0;points=[];spacing=2;fontSize=12;fontFamily=Helvetica;fontStyle=0;spacingBottom=4;" parent="r7nNvGlKOpMACiNWa7cd-56" vertex="1" connectable="0">
          <mxGeometry relative="1" as="geometry">
            <mxPoint as="offset" />
          </mxGeometry>
        </mxCell>
        <mxCell id="r7nNvGlKOpMACiNWa7cd-59" value="" style="endArrow=classic;rounded=1;entryX=0;entryY=0.5;entryDx=0;entryDy=0;dashed=1;strokeWidth=1;edgeStyle=orthogonalEdgeStyle;exitX=0.5;exitY=1;exitDx=0;exitDy=0;" parent="1" source="lc0LaRIL4ASI05uKJP0S-1" target="r7nNvGlKOpMACiNWa7cd-2" edge="1">
          <mxGeometry width="50" height="50" relative="1" as="geometry">
            <mxPoint x="120" y="200" as="sourcePoint" />
            <mxPoint x="166" y="170" as="targetPoint" />
            <Array as="points">
              <mxPoint x="120" y="300" />
            </Array>
          </mxGeometry>
        </mxCell>
        <mxCell id="lc0LaRIL4ASI05uKJP0S-3" value="instruction" style="edgeLabel;align=center;verticalAlign=middle;resizable=0;points=[];fontSize=12;fontStyle=0;fontFamily=Helvetica;" parent="r7nNvGlKOpMACiNWa7cd-59" vertex="1" connectable="0">
          <mxGeometry x="-0.6464" relative="1" as="geometry">
            <mxPoint y="-4" as="offset" />
          </mxGeometry>
        </mxCell>
        <mxCell id="r7nNvGlKOpMACiNWa7cd-87" value="" style="endArrow=classic;rounded=1;exitX=0.5;exitY=1;exitDx=0;exitDy=0;entryX=0.5;entryY=0;entryDx=0;entryDy=0;edgeStyle=orthogonalEdgeStyle;startArrow=classic;startFill=1;strokeWidth=1;dashed=1;" parent="1" source="r7nNvGlKOpMACiNWa7cd-49" target="B4ZhFoXUUHLdQDF_ri7t-1" edge="1">
          <mxGeometry width="50" height="50" relative="1" as="geometry">
            <mxPoint x="490" y="550" as="sourcePoint" />
            <mxPoint x="540" y="500" as="targetPoint" />
          </mxGeometry>
        </mxCell>
        <mxCell id="B4ZhFoXUUHLdQDF_ri7t-1" value="&lt;span style=&quot;font-weight: normal;&quot;&gt;Â«componentÂ»&lt;/span&gt;&lt;br&gt;ALU" style="dropTarget=0;fontSize=12;fontStyle=1;html=1;" parent="1" vertex="1">
          <mxGeometry x="526" y="510" width="140" height="70" as="geometry" />
        </mxCell>
        <mxCell id="B4ZhFoXUUHLdQDF_ri7t-2" value="" style="shape=module;jettyWidth=8;jettyHeight=4;" parent="B4ZhFoXUUHLdQDF_ri7t-1" vertex="1">
          <mxGeometry x="1" width="20" height="20" relative="1" as="geometry">
            <mxPoint x="-27" y="7" as="offset" />
          </mxGeometry>
        </mxCell>
        <mxCell id="B4ZhFoXUUHLdQDF_ri7t-3" value="Â«componentÂ»&lt;br&gt;&lt;b&gt;Register File&lt;/b&gt;" style="dropTarget=0;fontSize=12;html=1;" parent="1" vertex="1">
          <mxGeometry x="526" y="600" width="140" height="70" as="geometry" />
        </mxCell>
        <mxCell id="B4ZhFoXUUHLdQDF_ri7t-4" value="" style="shape=module;jettyWidth=8;jettyHeight=4;" parent="B4ZhFoXUUHLdQDF_ri7t-3" vertex="1">
          <mxGeometry x="1" width="20" height="20" relative="1" as="geometry">
            <mxPoint x="-27" y="7" as="offset" />
          </mxGeometry>
        </mxCell>
        <mxCell id="lc0LaRIL4ASI05uKJP0S-1" value="&lt;span style=&quot;font-weight: normal;&quot;&gt;Â«componentÂ»&lt;/span&gt;&lt;br&gt;Text Memory" style="dropTarget=0;fontSize=12;fontStyle=1;html=1;" parent="1" vertex="1">
          <mxGeometry x="50" y="130" width="140" height="70" as="geometry" />
        </mxCell>
        <mxCell id="lc0LaRIL4ASI05uKJP0S-2" value="" style="shape=module;jettyWidth=8;jettyHeight=4;" parent="lc0LaRIL4ASI05uKJP0S-1" vertex="1">
          <mxGeometry x="1" width="20" height="20" relative="1" as="geometry">
            <mxPoint x="-27" y="7" as="offset" />
          </mxGeometry>
        </mxCell>
        <mxCell id="r7nNvGlKOpMACiNWa7cd-82" value="ENV" style="shape=umlFrame;pointerEvents=0;fillColor=#E6E6E6;fontStyle=1;strokeWidth=1;perimeterSpacing=0;" parent="1" vertex="1">
          <mxGeometry x="506" y="470" width="180" height="220" as="geometry" />
        </mxCell>
        <mxCell id="cLEtlIDDs4ptI16SrnOB-1" value="" style="endArrow=classic;html=1;rounded=1;entryX=-0.004;entryY=0.745;entryDx=0;entryDy=0;entryPerimeter=0;exitX=0.5;exitY=1;exitDx=0;exitDy=0;edgeStyle=orthogonalEdgeStyle;dashed=1;" edge="1" parent="1" source="r7nNvGlKOpMACiNWa7cd-17" target="r7nNvGlKOpMACiNWa7cd-82">
          <mxGeometry width="50" height="50" relative="1" as="geometry">
            <mxPoint x="340" y="460" as="sourcePoint" />
            <mxPoint x="390" y="410" as="targetPoint" />
            <Array as="points">
              <mxPoint x="236" y="634" />
            </Array>
          </mxGeometry>
        </mxCell>
      </root>
    </mxGraphModel>
  </diagram>
</mxfile>
